# xmcd
#
# Track frame offsets:
#	150
#	14043
#	27127
#	37286
#	50497
#	63095
#	74069
#	84898
#	98180
#	115196
#	127939
#	138372
#	148794
#	161772
#	173843
#
# Disc length: 2487 seconds
#
# Revision: 1
# Processed by: cddbd v1.5.2PL0 Copyright (c) Steve Scherf et al.
# Submitted via: audiograbber 1.83.01
#
DISCID=d409b50f
DTITLE=Arielle Dombasle - C'est si bon
DYEAR=2006
DGENRE=Latin
TTITLE0=C'est magnifique
TTITLE1=C'est si bon
TTITLE2=Tico tico
TTITLE3=Relax-ay-voo
TTITLE4=Dream a little dream of me
TTITLE5=Cheek to cheek
TTITLE6=Que sera sera
TTITLE7=A fine romance
TTITLE8=Moi, je m'ennuie
TTITLE9=Paris in delight
TTITLE10=South american way
TTITLE11=Boys in the backroom
TTITLE12=Darling, je vous aime beaucoup
TTITLE13=Tenias que ser tu
TTITLE14=I'm in the mood for love
EXTD=
EXTT0=
EXTT1=
EXTT2=
EXTT3=
EXTT4=
EXTT5=
EXTT6=
EXTT7=
EXTT8=
EXTT9=
EXTT10=
EXTT11=
EXTT12=
EXTT13=
EXTT14=
PLAYORDER=
